<svg width="220" height="252" viewBox="0 0 220 252" fill="none" xmlns="http://www.w3.org/2000/svg">
<path d="M112 197.5C127.135 197.5 140.93 192.815 150.995 185.124C161.061 177.432 167.5 166.627 167.5 154.5C167.5 142.373 161.061 131.568 150.995 123.876C140.93 116.185 127.135 111.5 112 111.5C96.8648 111.5 83.0698 116.185 73.0054 123.876C62.9388 131.568 56.5 142.373 56.5 154.5C56.5 166.627 62.9388 177.432 73.0054 185.124C83.0698 192.815 96.8648 197.5 112 197.5Z" stroke="#FF6B49" stroke-width="5"/>
<path d="M143.371 129.878C161.092 143.396 161.092 163.997 143.371 177.514C125.65 191.032 96.918 191.032 79.1968 177.514" stroke="#FFD699" stroke-width="5" stroke-linecap="square"/>
<rect width="34.704" height="12.7628" transform="matrix(0.857098 0.515153 -0.718489 0.695539 169.821 181.663)" fill="#FF6B49"/>
<rect width="8.40471" height="8.0603" transform="matrix(0.857098 0.515153 -0.718489 0.695539 161.395 178.681)" fill="#FF6B49"/>
<path d="M22.1745 50.8298C25.854 49.0715 28.295 48.7062 33.1061 49.8223C45.0531 90.3493 51.6786 111.661 48.9343 136.675L39.2048 136.781C39.8675 140.964 40.424 93.8028 22.1745 50.8298Z" fill="#FF6B49"/>
<path d="M187.65 111.485C177.992 100.366 145.016 96.0661 124.876 102.611C167.024 112.063 185.468 142.254 173.164 174.493C185.05 181.24 182.904 184.537 199.012 182.733L184.525 171.614C200.238 138.914 197.307 122.604 187.65 111.485Z" fill="#ED4F2C"/>
<path d="M68.533 75.8164C99.2365 73.4965 124.823 71.1765 145.292 75.8164C165.761 80.4564 152.329 89.2951 150.409 103.297" stroke="#FF6B49" stroke-width="4"/>
<path d="M53.9244 37.882C60.5787 29.9412 74.1892 34.1888 77.9019 35.3703C87.6285 39.0906 95.1542 49.4913 95.1542 56.4105C95.1542 67.1818 90.5464 80.6686 92.4917 84.3889C96.1875 91.4569 97.355 95.5498 116.808 97.41C136.261 99.2701 157.159 103.055 150.196 109.315C124.528 101.874 108.577 102.494 108.577 102.494C108.577 102.494 63.312 102.494 48.7222 136.473C46.5948 98.08 43.1272 88.5109 43.943 69.6452C44.7588 50.7795 47.2701 45.8227 53.9244 37.882Z" fill="#ED4F2C"/>
<ellipse cx="79.4062" cy="16.5879" rx="21.7464" ry="16.5879" fill="#ED4F2C"/>
<path d="M97.564 92.3099C72.9344 87.7782 61.9824 80.8817 43.9071 66.3516C43.4709 69.2372 44.8075 90.4195 45.3706 96.0182L48.785 136.81C49.1428 136.838 53.9633 118.293 82.9303 107.514C97.5644 103.435 112.778 100.69 136.588 106.401C174.518 121.199 180.06 143.216 173.172 175.005C173.172 175.005 180.488 179.826 185.366 182.422C190.245 185.018 193.18 183.694 200 183.164C192.848 178.152 189.484 175.642 185.367 172.039C190.336 160.439 193.259 152.079 195.122 140.518C196.592 128.162 195.626 121.467 187.318 110.851C180.489 103.435 156.099 96.0182 136.588 99.7265C105.617 97.1678 101.52 95.5586 97.564 92.3099Z" fill="#AD3B22"/>
<path d="M61.3583 25.7477C53.731 17.1193 59.2255 7.2085 65.9152 3.76996C62.8653 15.4799 62.7651 28.4303 87.314 29.4107C73.7138 35.1852 64.2397 28.3646 61.3583 25.7477Z" fill="#AD3B22"/>
<path d="M2.69613 244V221.28H7.11213V244H2.69613Z" fill="#FF6B49"/>
<path d="M27.0204 244H22.7324V234.592C22.7324 233.248 22.4977 232.267 22.0284 231.648C21.559 231.029 20.9084 230.72 20.0764 230.72C19.5004 230.72 18.9137 230.869 18.3164 231.168C17.7404 231.467 17.2177 231.883 16.7484 232.416C16.279 232.928 15.9377 233.525 15.7244 234.208V244H11.4364V227.232H15.3084V230.336C15.735 229.611 16.279 229.003 16.9404 228.512C17.6017 228 18.359 227.616 19.2124 227.36C20.087 227.083 21.0044 226.944 21.9644 226.944C23.0097 226.944 23.863 227.136 24.5244 227.52C25.207 227.883 25.719 228.384 26.0604 229.024C26.423 229.643 26.6684 230.347 26.7964 231.136C26.9457 231.925 27.0204 232.725 27.0204 233.536V244ZM38.5569 244.32C37.1915 244.32 35.9649 244.096 34.8769 243.648C33.7889 243.179 32.8609 242.539 32.0929 241.728C31.3249 240.896 30.7275 239.957 30.3009 238.912C29.8955 237.867 29.6929 236.768 29.6929 235.616C29.6929 234.037 30.0449 232.597 30.7489 231.296C31.4742 229.973 32.4982 228.917 33.8209 228.128C35.1435 227.339 36.7115 226.944 38.5249 226.944C40.3382 226.944 41.8955 227.339 43.1969 228.128C44.4982 228.917 45.4689 229.952 46.1089 231.232L41.9169 232.512C41.5542 231.893 41.0742 231.424 40.4769 231.104C39.8795 230.763 39.2182 230.592 38.4929 230.592C37.6822 230.592 36.9355 230.805 36.2529 231.232C35.5915 231.637 35.0689 232.224 34.6849 232.992C34.3009 233.739 34.1089 234.613 34.1089 235.616C34.1089 236.597 34.3009 237.472 34.6849 238.24C35.0902 238.987 35.6235 239.584 36.2849 240.032C36.9462 240.459 37.6822 240.672 38.4929 240.672C39.0049 240.672 39.4849 240.587 39.9329 240.416C40.4022 240.245 40.8182 240.011 41.1809 239.712C41.5435 239.413 41.8102 239.072 41.9809 238.688L46.1729 239.968C45.7889 240.8 45.2235 241.547 44.4769 242.208C43.7515 242.869 42.8875 243.392 41.8849 243.776C40.9035 244.139 39.7942 244.32 38.5569 244.32ZM48.7794 220.64H53.0674V238.624C53.0674 239.392 53.1954 239.915 53.4514 240.192C53.7074 240.448 54.0594 240.576 54.5074 240.576C54.8487 240.576 55.2007 240.533 55.5634 240.448C55.926 240.363 56.246 240.256 56.5234 240.128L57.0994 243.392C56.5234 243.669 55.8514 243.883 55.0834 244.032C54.3154 244.181 53.622 244.256 53.0034 244.256C51.6594 244.256 50.614 243.904 49.8674 243.2C49.142 242.475 48.7794 241.451 48.7794 240.128V220.64ZM58.8076 237.728V227.232H63.0956V236.8C63.0956 238.08 63.3303 239.051 63.7996 239.712C64.269 240.352 64.9623 240.672 65.8796 240.672C66.4343 240.672 66.9783 240.565 67.5116 240.352C68.0663 240.117 68.5676 239.776 69.0156 239.328C69.485 238.88 69.8796 238.315 70.1996 237.632V227.232H74.4876V239.2C74.4876 239.648 74.5623 239.968 74.7116 240.16C74.8823 240.352 75.149 240.469 75.5116 240.512V244C75.085 244.064 74.7223 244.107 74.4236 244.128C74.1463 244.171 73.8903 244.192 73.6556 244.192C72.8876 244.192 72.2583 244.021 71.7676 243.68C71.2983 243.317 71.021 242.827 70.9356 242.208L70.8396 240.864C70.093 241.995 69.133 242.859 67.9596 243.456C66.7863 244.032 65.4956 244.32 64.0876 244.32C62.3596 244.32 61.0476 243.765 60.1516 242.656C59.2556 241.525 58.8076 239.883 58.8076 237.728ZM84.9249 244.32C83.4955 244.32 82.1302 244.085 80.8289 243.616C79.5275 243.147 78.4075 242.453 77.4689 241.536L79.0049 238.752C80.0075 239.563 80.9889 240.16 81.9489 240.544C82.9302 240.928 83.8689 241.12 84.7649 241.12C85.5969 241.12 86.2582 240.971 86.7489 240.672C87.2609 240.373 87.5169 239.925 87.5169 239.328C87.5169 238.923 87.3782 238.613 87.1009 238.4C86.8235 238.165 86.4182 237.963 85.8849 237.792C85.3729 237.621 84.7435 237.429 83.9969 237.216C82.7595 236.811 81.7249 236.416 80.8929 236.032C80.0609 235.648 79.4315 235.168 79.0049 234.592C78.5995 233.995 78.3969 233.237 78.3969 232.32C78.3969 231.211 78.6742 230.261 79.2289 229.472C79.8049 228.661 80.5942 228.032 81.5969 227.584C82.6209 227.136 83.8155 226.912 85.1809 226.912C86.3755 226.912 87.5062 227.104 88.5729 227.488C89.6395 227.851 90.6102 228.448 91.4849 229.28L89.7569 232C88.9035 231.339 88.0929 230.859 87.3249 230.56C86.5569 230.24 85.7782 230.08 84.9889 230.08C84.5409 230.08 84.1142 230.133 83.7089 230.24C83.3249 230.347 83.0049 230.528 82.7489 230.784C82.5142 231.019 82.3969 231.36 82.3969 231.808C82.3969 232.213 82.5035 232.533 82.7169 232.768C82.9515 232.981 83.2929 233.173 83.7409 233.344C84.2102 233.515 84.7755 233.707 85.4369 233.92C86.7809 234.304 87.9115 234.699 88.8289 235.104C89.7675 235.509 90.4715 236.011 90.9409 236.608C91.4102 237.184 91.6449 237.984 91.6449 239.008C91.6449 240.672 91.0369 241.973 89.8209 242.912C88.6049 243.851 86.9729 244.32 84.9249 244.32ZM94.5614 244V227.232H98.8494V244H94.5614ZM94.5614 224.896V220.64H98.8494V224.896H94.5614ZM123.441 239.04C123.441 237.952 123.739 237.003 124.337 236.192C124.955 235.36 125.809 234.72 126.897 234.272C127.985 233.824 129.233 233.6 130.641 233.6C131.345 233.6 132.059 233.653 132.785 233.76C133.51 233.867 134.139 234.037 134.673 234.272V233.376C134.673 232.309 134.353 231.488 133.713 230.912C133.094 230.336 132.166 230.048 130.929 230.048C130.011 230.048 129.137 230.208 128.305 230.528C127.473 230.848 126.598 231.317 125.681 231.936L124.305 229.12C125.414 228.395 126.545 227.851 127.697 227.488C128.87 227.125 130.097 226.944 131.377 226.944C133.766 226.944 135.622 227.541 136.945 228.736C138.289 229.931 138.961 231.637 138.961 233.856V239.2C138.961 239.648 139.035 239.968 139.185 240.16C139.355 240.352 139.622 240.469 139.985 240.512V244C139.601 244.064 139.249 244.117 138.929 244.16C138.63 244.203 138.374 244.224 138.161 244.224C137.307 244.224 136.657 244.032 136.209 243.648C135.782 243.264 135.515 242.795 135.409 242.24L135.313 241.376C134.587 242.315 133.681 243.04 132.593 243.552C131.505 244.064 130.395 244.32 129.265 244.32C128.155 244.32 127.153 244.096 126.257 243.648C125.382 243.179 124.689 242.549 124.177 241.76C123.686 240.949 123.441 240.043 123.441 239.04ZM133.873 239.904C134.107 239.648 134.299 239.392 134.449 239.136C134.598 238.88 134.673 238.645 134.673 238.432V236.736C134.161 236.523 133.606 236.363 133.009 236.256C132.411 236.128 131.846 236.064 131.313 236.064C130.203 236.064 129.286 236.309 128.561 236.8C127.857 237.269 127.505 237.899 127.505 238.688C127.505 239.115 127.622 239.52 127.857 239.904C128.091 240.288 128.433 240.597 128.881 240.832C129.329 241.067 129.862 241.184 130.481 241.184C131.121 241.184 131.75 241.067 132.369 240.832C132.987 240.576 133.489 240.267 133.873 239.904ZM152.952 230.944C151.65 230.944 150.488 231.2 149.464 231.712C148.44 232.203 147.704 232.917 147.256 233.856V244H142.968V227.232H146.904V230.816C147.501 229.664 148.258 228.757 149.176 228.096C150.093 227.435 151.064 227.072 152.088 227.008C152.322 227.008 152.504 227.008 152.632 227.008C152.76 227.008 152.866 227.019 152.952 227.04V230.944ZM162.9 244.32C161.556 244.32 160.34 244.096 159.252 243.648C158.164 243.179 157.236 242.549 156.468 241.76C155.7 240.949 155.103 240.032 154.676 239.008C154.271 237.963 154.068 236.864 154.068 235.712C154.068 234.112 154.42 232.651 155.124 231.328C155.849 230.005 156.873 228.949 158.196 228.16C159.54 227.349 161.119 226.944 162.932 226.944C164.767 226.944 166.335 227.349 167.636 228.16C168.937 228.949 169.929 230.005 170.612 231.328C171.316 232.629 171.668 234.037 171.668 235.552C171.668 235.808 171.657 236.075 171.636 236.352C171.615 236.608 171.593 236.821 171.572 236.992H158.612C158.697 237.845 158.943 238.592 159.348 239.232C159.775 239.872 160.308 240.363 160.948 240.704C161.609 241.024 162.313 241.184 163.06 241.184C163.913 241.184 164.713 240.981 165.46 240.576C166.228 240.149 166.751 239.595 167.028 238.912L170.708 239.936C170.303 240.789 169.716 241.547 168.948 242.208C168.201 242.869 167.316 243.392 166.292 243.776C165.268 244.139 164.137 244.32 162.9 244.32ZM158.516 234.272H167.284C167.199 233.419 166.953 232.683 166.548 232.064C166.164 231.424 165.652 230.933 165.012 230.592C164.372 230.229 163.657 230.048 162.868 230.048C162.1 230.048 161.396 230.229 160.756 230.592C160.137 230.933 159.625 231.424 159.22 232.064C158.836 232.683 158.601 233.419 158.516 234.272ZM182.056 244.32C180.712 244.32 179.496 244.096 178.408 243.648C177.32 243.179 176.392 242.549 175.624 241.76C174.856 240.949 174.259 240.032 173.832 239.008C173.427 237.963 173.224 236.864 173.224 235.712C173.224 234.112 173.576 232.651 174.28 231.328C175.005 230.005 176.029 228.949 177.352 228.16C178.696 227.349 180.275 226.944 182.088 226.944C183.923 226.944 185.491 227.349 186.792 228.16C188.093 228.949 189.085 230.005 189.768 231.328C190.472 232.629 190.824 234.037 190.824 235.552C190.824 235.808 190.813 236.075 190.792 236.352C190.771 236.608 190.749 236.821 190.728 236.992H177.768C177.853 237.845 178.099 238.592 178.504 239.232C178.931 239.872 179.464 240.363 180.104 240.704C180.765 241.024 181.469 241.184 182.216 241.184C183.069 241.184 183.869 240.981 184.616 240.576C185.384 240.149 185.907 239.595 186.184 238.912L189.864 239.936C189.459 240.789 188.872 241.547 188.104 242.208C187.357 242.869 186.472 243.392 185.448 243.776C184.424 244.139 183.293 244.32 182.056 244.32ZM177.672 234.272H186.44C186.355 233.419 186.109 232.683 185.704 232.064C185.32 231.424 184.808 230.933 184.168 230.592C183.528 230.229 182.813 230.048 182.024 230.048C181.256 230.048 180.552 230.229 179.912 230.592C179.293 230.933 178.781 231.424 178.376 232.064C177.992 232.683 177.757 233.419 177.672 234.272ZM203.42 230.944C202.119 230.944 200.956 231.2 199.932 231.712C198.908 232.203 198.172 232.917 197.724 233.856V244H193.436V227.232H197.372V230.816C197.97 229.664 198.727 228.757 199.644 228.096C200.562 227.435 201.532 227.072 202.556 227.008C202.791 227.008 202.972 227.008 203.1 227.008C203.228 227.008 203.335 227.019 203.42 227.04V230.944ZM211.987 244.32C210.558 244.32 209.193 244.085 207.891 243.616C206.59 243.147 205.47 242.453 204.531 241.536L206.067 238.752C207.07 239.563 208.051 240.16 209.011 240.544C209.993 240.928 210.931 241.12 211.827 241.12C212.659 241.12 213.321 240.971 213.811 240.672C214.323 240.373 214.579 239.925 214.579 239.328C214.579 238.923 214.441 238.613 214.163 238.4C213.886 238.165 213.481 237.963 212.947 237.792C212.435 237.621 211.806 237.429 211.059 237.216C209.822 236.811 208.787 236.416 207.955 236.032C207.123 235.648 206.494 235.168 206.067 234.592C205.662 233.995 205.459 233.237 205.459 232.32C205.459 231.211 205.737 230.261 206.291 229.472C206.867 228.661 207.657 228.032 208.659 227.584C209.683 227.136 210.878 226.912 212.243 226.912C213.438 226.912 214.569 227.104 215.635 227.488C216.702 227.851 217.673 228.448 218.547 229.28L216.819 232C215.966 231.339 215.155 230.859 214.387 230.56C213.619 230.24 212.841 230.08 212.051 230.08C211.603 230.08 211.177 230.133 210.771 230.24C210.387 230.347 210.067 230.528 209.811 230.784C209.577 231.019 209.459 231.36 209.459 231.808C209.459 232.213 209.566 232.533 209.779 232.768C210.014 232.981 210.355 233.173 210.803 233.344C211.273 233.515 211.838 233.707 212.499 233.92C213.843 234.304 214.974 234.699 215.891 235.104C216.83 235.509 217.534 236.011 218.003 236.608C218.473 237.184 218.707 237.984 218.707 239.008C218.707 240.672 218.099 241.973 216.883 242.912C215.667 243.851 214.035 244.32 211.987 244.32Z" fill="black"/>
<path d="M101.695 232.48C101.695 231.093 101.94 229.739 102.431 228.416C102.943 227.072 103.679 225.856 104.639 224.768C105.599 223.659 106.772 222.784 108.159 222.144C109.546 221.483 111.124 221.152 112.895 221.152C114.986 221.152 116.788 221.611 118.303 222.528C119.839 223.445 120.98 224.64 121.727 226.112L118.335 228.448C117.951 227.595 117.45 226.923 116.831 226.432C116.212 225.92 115.551 225.568 114.847 225.376C114.143 225.163 113.45 225.056 112.767 225.056C111.658 225.056 110.687 225.28 109.855 225.728C109.044 226.176 108.362 226.763 107.807 227.488C107.252 228.213 106.836 229.024 106.559 229.92C106.303 230.816 106.175 231.712 106.175 232.608C106.175 233.611 106.335 234.581 106.655 235.52C106.975 236.437 107.423 237.259 107.999 237.984C108.596 238.688 109.3 239.253 110.111 239.68C110.943 240.085 111.85 240.288 112.831 240.288C113.535 240.288 114.25 240.171 114.975 239.936C115.7 239.701 116.372 239.328 116.991 238.816C117.61 238.304 118.09 237.643 118.431 236.832L122.047 238.912C121.599 240.043 120.863 241.003 119.839 241.792C118.836 242.581 117.706 243.179 116.447 243.584C115.188 243.989 113.94 244.192 112.703 244.192C111.082 244.192 109.599 243.861 108.255 243.2C106.911 242.517 105.748 241.621 104.767 240.512C103.807 239.381 103.05 238.123 102.495 236.736C101.962 235.328 101.695 233.909 101.695 232.48Z" fill="#ED4F2C"/>
</svg>
